<svg width="24" height="27" viewBox="0 0 24 27" fill="none" xmlns="http://www.w3.org/2000/svg">
<path d="M5.12359 1.66042V3.32084H2.56179C1.14747 3.32084 0 4.43644 0 5.81148V8.30211H23.9101V5.81148C23.9101 4.43644 22.7626 3.32084 21.3483 3.32084H18.7865V1.66042C18.7865 0.742001 18.0233 0 17.0786 0C16.134 0 15.3708 0.742001 15.3708 1.66042V3.32084H8.53932V1.66042C8.53932 0.742001 7.77611 0 6.83145 0C5.88679 0 5.12359 0.742001 5.12359 1.66042ZM23.9101 9.96253H0V24.0761C0 25.4512 1.14747 26.5668 2.56179 26.5668H21.3483C22.7626 26.5668 23.9101 25.4512 23.9101 24.0761V9.96253Z" fill="#DAD7E0"/>
</svg>
