<svg width="31" height="27" viewBox="0 0 31 27" fill="none" xmlns="http://www.w3.org/2000/svg">
<path d="M30.0985 13.2574C30.0985 14.1914 29.3144 14.923 28.4258 14.923H26.7531L26.7897 23.2355C26.7897 23.3756 26.7792 23.5157 26.7635 23.6558V24.4912C26.7635 25.638 25.8279 26.5668 24.6726 26.5668H23.8363C23.7788 26.5668 23.7213 26.5668 23.6638 26.5616C23.5906 26.5668 23.5174 26.5668 23.4442 26.5668H21.7454H20.4908C19.3356 26.5668 18.3999 25.638 18.3999 24.4912V23.2459V19.9251C18.3999 19.0066 17.6524 18.2646 16.7272 18.2646H13.3818C12.4565 18.2646 11.7091 19.0066 11.7091 19.9251V23.2459V24.4912C11.7091 25.638 10.7734 26.5668 9.61815 26.5668H8.36361H6.69611C6.61771 26.5668 6.5393 26.5616 6.46089 26.5564C6.39816 26.5616 6.33543 26.5668 6.27271 26.5668H5.43635C4.28112 26.5668 3.34544 25.638 3.34544 24.4912V18.6798C3.34544 18.6331 3.34544 18.5812 3.35067 18.5345V14.923H1.67272C0.731816 14.923 0 14.1966 0 13.2574C0 12.7904 0.156818 12.3753 0.522726 12.0121L13.9254 0.415106C14.2913 0.0518882 14.7095 0 15.0754 0C15.4413 0 15.8595 0.103776 16.1731 0.363217L29.5235 12.0121C29.9417 12.3753 30.1508 12.7904 30.0985 13.2574Z" fill="#DAD7E0"/>
</svg>
