<svg width="30" height="27" viewBox="0 0 30 27" fill="none" xmlns="http://www.w3.org/2000/svg">
<path d="M28.6244 5.38599L25.6292 0.679735C25.3626 0.259441 24.887 0 24.3799 0H5.72907C5.22202 0 4.74634 0.259441 4.47975 0.679735L1.47931 5.38599C-0.0679585 7.81436 1.30158 11.1923 4.19225 11.5814C4.40135 11.6074 4.61566 11.623 4.82475 11.623C6.18907 11.623 7.40179 11.0314 8.23292 10.1182C9.06406 11.0314 10.2768 11.623 11.6411 11.623C13.0054 11.623 14.2181 11.0314 15.0493 10.1182C15.8804 11.0314 17.0931 11.623 18.4574 11.623C19.827 11.623 21.0345 11.0314 21.8656 10.1182C22.702 11.0314 23.9095 11.623 25.2738 11.623C25.4881 11.623 25.6972 11.6074 25.9063 11.5814C28.8074 11.1975 30.1822 7.81955 28.6297 5.38599H28.6244ZM26.1206 13.2263H26.1154C25.8383 13.2626 25.556 13.2834 25.2686 13.2834C24.6204 13.2834 23.9983 13.1848 23.4181 13.0084V19.9251H6.69088V13.0032C6.10543 13.1848 5.47816 13.2834 4.82998 13.2834C4.54248 13.2834 4.25498 13.2626 3.97794 13.2263H3.97271C3.75839 13.1952 3.5493 13.1588 3.34544 13.107V19.9251V23.2459C3.34544 25.0776 4.84566 26.5668 6.69088 26.5668H23.4181C25.2633 26.5668 26.7635 25.0776 26.7635 23.2459V19.9251V13.107C26.5545 13.1588 26.3454 13.2004 26.1206 13.2263Z" fill="#DAD7E0"/>
</svg>
