<svg width="24" height="27" viewBox="0 0 24 27" fill="none" xmlns="http://www.w3.org/2000/svg">
<path d="M11.5123 13.2834C13.257 13.2834 14.9302 12.5836 16.1639 11.3381C17.3976 10.0925 18.0907 8.40318 18.0907 6.64169C18.0907 4.8802 17.3976 3.19086 16.1639 1.94531C14.9302 0.699748 13.257 0 11.5123 0C9.76755 0 8.0943 0.699748 6.8606 1.94531C5.62691 3.19086 4.93383 4.8802 4.93383 6.64169C4.93383 8.40318 5.62691 10.0925 6.8606 11.3381C8.0943 12.5836 9.76755 13.2834 11.5123 13.2834ZM9.16355 15.774C4.10124 15.774 0 19.9147 0 25.0257C0 25.8766 0.683541 26.5668 1.5264 26.5668H21.4981C22.341 26.5668 23.0245 25.8766 23.0245 25.0257C23.0245 19.9147 18.9233 15.774 13.861 15.774H9.16355Z" fill="#DAD7E0"/>
</svg>
